<svg width="70" height="43" viewBox="0 0 70 43" fill="none" xmlns="http://www.w3.org/2000/svg">
<path fill-rule="evenodd" clip-rule="evenodd" d="M36.8764 0.0945703C36.055 0.428107 34.9527 1.55571 34.5737 2.45007C34.4188 2.81581 34.2774 3.3755 34.2401 3.77037C34.2233 3.94823 34.1868 4.11076 34.159 4.13155C34.1311 4.15239 33.9436 4.22545 33.7423 4.2939C32.5879 4.6867 31.7422 5.26024 31.1236 6.07C30.234 7.23445 29.9042 8.64246 30.128 10.3203C30.3013 11.6192 30.6869 12.6603 31.4212 13.8125L31.7374 14.3085L32.3281 14.323C32.653 14.331 33.2762 14.3236 33.713 14.3067L34.5073 14.2759L34.2342 13.9991C33.1429 12.8933 32.5553 11.8401 32.2539 10.45C32.1138 9.80366 32.1113 8.95408 32.248 8.45495C32.4723 7.63567 33.0483 6.92521 33.8046 6.53477C34.0568 6.40457 34.1978 6.3542 34.2183 6.38694C34.2354 6.41422 34.2758 6.79737 34.308 7.23832C34.4184 8.74862 34.5824 9.87902 34.8855 11.2165C35.0883 12.1118 35.5635 13.7919 35.6915 14.0665L35.7889 14.2754L36.6326 14.3082C37.0965 14.3263 37.7856 14.3263 38.1639 14.3082L38.8516 14.2754L38.9425 14.0665C39.1638 13.5576 39.6824 11.6658 39.8466 10.7684C40.051 9.65065 40.2221 8.40633 40.2869 7.56654C40.3587 6.63623 40.3889 6.40574 40.4434 6.37255C40.49 6.3441 41.1924 6.77108 41.4974 7.01325C42.1975 7.56915 42.4696 8.22234 42.4698 9.34787C42.4702 11.0434 41.7894 12.58 40.4265 13.9597L40.1029 14.2873L41.5178 14.2754L42.9326 14.2634L43.1495 13.9499C43.4458 13.5215 43.925 12.5586 44.1255 11.9891C44.3732 11.2852 44.5154 10.5395 44.5481 9.77281C44.5973 8.61973 44.4239 7.73371 43.9707 6.82244C43.4717 5.81894 42.7759 5.13352 41.7497 4.63443C41.4474 4.48737 41.0487 4.328 40.8638 4.28024C40.6789 4.23253 40.5066 4.17277 40.481 4.14747C40.4553 4.12217 40.3875 3.83721 40.3302 3.51422C40.1096 2.27013 39.8529 1.78579 38.9815 0.969089C38.0205 0.0684591 37.4868 -0.153282 36.8764 0.0945703ZM37.5373 2.42937C37.8358 2.68769 38.206 3.39526 38.2726 3.83477L38.3051 4.04898H37.3153H36.3256L36.3547 3.92496C36.5187 3.22524 36.8824 2.49837 37.1365 2.36263C37.3175 2.2659 37.3557 2.27225 37.5373 2.42937ZM38.2753 6.2834C38.3297 6.56949 38.1363 8.40372 37.9237 9.618C37.7614 10.5447 37.4881 11.7693 37.3951 11.986L37.3274 12.1439L37.2649 12.0281C36.9854 11.5098 36.4508 8.26053 36.3584 6.51804L36.3375 6.12344H37.2911H38.2448L38.2753 6.2834ZM20.095 16.4177C20.0243 16.4919 19.9023 16.8817 19.6524 17.8325C19.4626 18.5543 19.3073 19.2154 19.3073 19.3015C19.3073 19.4594 19.388 19.5658 19.5508 19.6229C19.5966 19.639 20.7988 19.6292 22.2224 19.6013C24.9985 19.5467 25.5102 19.5654 26.1695 19.7455C26.9992 19.9722 27.6527 20.4894 27.9894 21.1858C28.2653 21.7565 28.3768 22.2893 28.4293 23.2887L28.4534 23.7455L26.1566 23.7694C23.8098 23.7938 23.4442 23.8176 22.4883 24.0081C21.1494 24.275 19.793 25.0048 18.9259 25.9247C17.8914 27.0223 17.3735 28.3357 17.3714 29.8669C17.3677 32.6252 19.2209 34.8731 22.1133 35.6186C22.8862 35.8178 23.4439 35.89 24.4322 35.9189C25.7773 35.9582 26.7931 35.8323 27.81 35.5004C29.7275 34.8746 31.1072 33.4605 31.5909 31.6253C31.8595 30.6064 31.8665 30.4737 31.8665 26.3945C31.8665 22.2768 31.8598 22.1548 31.5753 21.0453C30.959 18.6418 29.1733 17.009 26.6049 16.5004C25.7975 16.3405 25.265 16.3153 22.6961 16.3153H20.1926L20.095 16.4177ZM50.0581 16.3669C46.9627 16.6858 44.5297 18.6035 43.8584 21.2534C43.544 22.4946 43.5024 23.6303 43.52 30.5083L43.5334 35.7496L43.6376 35.8523L43.7419 35.955H45.2491H46.7564L46.8606 35.8523L46.9649 35.7496L46.991 29.4937C47.0188 22.8556 47.0189 22.8508 47.2377 22.0201C47.5089 20.9901 48.2562 20.2383 49.3626 19.8824C50.028 19.6683 50.3558 19.636 51.893 19.6329C53.149 19.6304 53.3536 19.6204 53.416 19.559C53.4875 19.4886 54.3082 16.7876 54.3082 16.6227C54.3082 16.5754 54.2576 16.4869 54.1959 16.426L54.0836 16.3153L52.2628 16.3213C51.2614 16.3246 50.2693 16.3451 50.0581 16.3669ZM58.2249 16.4168C58.1283 16.5024 58.0561 16.7268 57.7648 17.8458C57.5748 18.576 57.4194 19.2216 57.4194 19.2806C57.4194 19.4359 57.4997 19.5603 57.6317 19.6098C57.7055 19.6375 58.6857 19.6344 60.3601 19.6013C63.1506 19.546 63.6128 19.5629 64.2764 19.7441C65.373 20.0436 66.0766 20.7633 66.3638 21.8793C66.4559 22.2373 66.5699 23.2056 66.5699 23.63V23.7563H64.7733C62.8094 23.7563 61.7906 23.8056 60.9992 23.9388C59.4385 24.2015 58.1966 24.7995 57.2103 25.7631C56.3429 26.6107 55.7744 27.6714 55.5667 28.8299C55.4713 29.3615 55.4713 30.3723 55.5667 30.904C55.9184 32.8659 57.3346 34.5353 59.3134 35.3207C60.2654 35.6986 61.2549 35.8818 62.5443 35.9191C65.1508 35.9945 67.0438 35.3683 68.378 33.9892C69.345 32.9896 69.7999 31.872 69.9548 30.115C70.0157 29.4251 70.0148 23.2979 69.9537 22.6289C69.8135 21.0923 69.4146 19.8829 68.7372 18.9409C68.4415 18.5295 67.7205 17.8305 67.3 17.5473C66.3407 16.9015 65.1411 16.4954 63.8054 16.3644C63.5134 16.3357 62.2733 16.3153 60.8225 16.3153H58.3396L58.2249 16.4168ZM0.0911859 16.4506C0.0370146 16.504 -0.000182339 16.6006 6.72311e-07 16.6874C0.000412447 16.8832 3.74797 32.3124 3.93506 32.8884C4.40032 34.3212 5.30983 35.2771 6.61306 35.7031C7.19293 35.8926 7.61358 35.9484 8.23517 35.9184C9.78541 35.8435 11.092 35.0292 11.758 33.7227C12.0239 33.2011 12.2207 32.5264 12.7842 30.2052C13.0702 29.027 13.928 25.4909 14.6905 22.347L16.0768 16.6311L15.9829 16.507L15.8889 16.383L14.3249 16.3711C13.3093 16.3634 12.7298 16.3756 12.6723 16.406C12.6208 16.4331 12.5549 16.5518 12.5153 16.6885C12.4776 16.8181 11.6532 20.2117 10.6832 24.2298C9.71322 28.248 8.87736 31.666 8.82575 31.8255C8.63601 32.4119 8.45213 32.6263 8.09892 32.6731C7.86705 32.7037 7.53877 32.5506 7.41762 32.3553C7.36871 32.2765 7.27464 32.0395 7.20857 31.8287C7.14255 31.6178 6.27837 28.0911 5.28829 23.9915C4.04303 18.8354 3.46303 16.5103 3.40675 16.449C3.32897 16.3643 3.25778 16.3604 1.75407 16.3604C0.24368 16.3604 0.179123 16.3639 0.0911859 16.4506ZM35.7076 16.6515L35.5953 16.7622L35.594 27.0802C35.5932 33.0915 35.5746 37.6409 35.5495 37.9799C35.4889 38.7959 35.4209 38.9978 35.0997 39.3144C34.764 39.6453 34.5008 39.7397 33.9253 39.7357C33.4681 39.7326 33.0783 39.6466 32.6137 39.4463C32.4459 39.3739 32.2745 39.3147 32.2327 39.3147C32.191 39.3147 32.0966 39.374 32.0231 39.4466L31.8893 39.5784V40.1949V40.8115L31.3632 41.3695C30.6516 42.1242 30.658 42.2075 31.4506 42.513C33.6854 43.3742 35.9453 43.0805 37.4535 41.7329C38.2111 41.0559 38.6941 40.1553 38.9194 38.9991C38.9986 38.5928 39.0036 38.0055 39.0157 27.6499L39.0286 16.7291L38.9071 16.635C38.7896 16.5439 38.7372 16.5408 37.3028 16.5408H35.8199L35.7076 16.6515ZM28.4562 27.691C28.4537 28.8805 28.3837 30.1723 28.2991 30.5885C28.1988 31.0816 27.9587 31.5521 27.6538 31.8526C27.1042 32.3943 26.1034 32.6861 24.7989 32.6851C22.3276 32.6832 20.9277 31.7366 20.8311 30.0022C20.8019 29.4788 20.8955 29.0336 21.1343 28.5591C21.6241 27.5859 22.5403 27.0602 23.997 26.9164C24.1983 26.8966 25.2844 26.8775 26.4104 26.8741L28.4579 26.868L28.4562 27.691ZM66.5554 28.39C66.5272 29.8927 66.4954 30.2929 66.3636 30.8046C66.0384 32.0668 64.8897 32.6881 62.888 32.6846C62.3258 32.6837 61.5468 32.5935 61.1132 32.4794C60.9563 32.4381 60.6416 32.3168 60.4137 32.21C59.0603 31.5751 58.5463 29.9566 59.2509 28.5479C59.7209 27.608 60.6778 27.0621 62.109 26.9171C62.3103 26.8967 63.3995 26.8773 64.5295 26.874L66.5839 26.868L66.5554 28.39Z" fill="#8F407F"/>
</svg>
